<?xml version="1.0" encoding="utf-8"?>
<svg xmlns="http://www.w3.org/2000/svg" width="472" height="302" viewBox="1073 373 472 302">
<path fill="#bc4280" d="M1527.14,545.76c23.82-13.75,23.82-36.25,0-50l-45.76-26.42c-23.82-13.75-62.79-36.25-86.6-50l-45.76-26.42
	c-23.82-13.75-43.3-2.5-43.3,25v52.84c0,27.5,0,72.5,0,100v52.84c0,27.5,19.49,38.75,43.3,25l45.76-26.42
	c23.82-13.75,62.79-36.25,86.6-50L1527.14,545.76z"/>
<path fill="#bc4280" d="M1246.81,394.38v49.73h-97.29v45.4H1236v49.73h-86.48v54.05h97.29v49.73H1089.7V394.38H1246.81z"/>
</svg>
