<?xml version="1.0" encoding="utf-8"?>
<svg version="1.1" xmlns="http://www.w3.org/2000/svg" xmlns:xlink="http://www.w3.org/1999/xlink"
     width="210" height="210" viewBox="193 315 210 210">
<path fill="#FFFFFF" d="M297.98,522.3c-56,0-101.55-45.56-101.55-101.55S241.99,319.2,297.98,319.2s101.55,45.56,101.55,101.55
	S353.98,522.3,297.98,522.3z M297.98,343.2c-42.76,0-77.55,34.79-77.55,77.55s34.79,77.55,77.55,77.55s77.55-34.79,77.55-77.55
	S340.74,343.2,297.98,343.2z M288.97,428h-20.02v-53.61h55.49V394h-33.59v11.82c2.42-1.88,6.18-4.3,13.17-4.3
	c12.76,0,23.78,9.94,23.78,32.79c0,23.51-10.08,34.13-29.96,34.13c-16.12,0-30.23-8.2-31.98-26.2h22.04
	c1.21,4.84,3.9,7.66,9.27,7.66c5.24,0,8.33-4.97,8.33-14.24c0-9.81-2.55-14.51-8.33-14.51C293,421.15,290.72,423.56,288.97,428z"/>
</svg>
